<?xml version="1.0" encoding="UTF-8" standalone="no"?> <svg id="Layer_1" enable-background="new 0 0 511.943 511.943" height="512" viewBox="0 0 511.943 511.943" width="512" xmlns="http://www.w3.org/2000/svg"><g><path d="m127.219 302.052-78.408 160.056 60.607 4.61 41.019 45.225 69.996-142.588z" fill="#ff3838"/><path d="m384.724 302.052-93.214 67.303 69.996 142.588 41.019-45.225 60.607-4.61z" fill="#ff3838"/><path d="m384.724 302.052-93.214 67.303 69.996 142.588 41.019-45.225 60.607-4.61z" fill="#c30047"/><path d="m420.692 57.214c-23.276 0-42.214-18.937-42.214-42.214v-15h-245.013v15c0 23.277-18.938 42.214-42.214 42.214h-15v153.889c0 76.962 45.847 145.956 116.8 175.77l62.921 26.439 62.921-26.439c70.953-29.814 116.8-98.808 116.8-175.77v-153.889z" fill="#ffd321"/><path d="m420.692 57.214c-23.276 0-42.214-18.937-42.214-42.214v-15h-122.507v413.312l62.921-26.439c70.953-29.814 116.8-98.808 116.8-175.77v-153.889z" fill="#ffaf00"/><path d="m357.34 108.677c-11.144 0-20.209-9.066-20.209-20.209v-15h-162.319v15c0 11.143-9.065 20.209-20.209 20.209h-15v100.471c0 49.691 29.601 94.236 75.412 113.486l40.956 17.21 40.956-17.21c45.812-19.25 75.412-63.795 75.412-113.486v-100.471z" fill="#fff16b"/><path d="m357.34 108.677c-11.144 0-20.209-9.066-20.209-20.209v-15h-81.159v266.376l40.956-17.21c45.812-19.25 75.412-63.795 75.412-113.486v-100.471z" fill="#ffd321"/><g><path d="m288.95 244.01-32.989-17.297-32.991 17.296 6.255-36.72-26.642-26.03 36.854-5.399 16.524-33.383 16.523 33.383 36.856 5.399-26.645 26.031z" fill="#ffd321"/></g><path d="m282.695 207.29 26.645-26.031-36.856-5.399-16.513-33.361v84.22l32.979 17.291z" fill="#ffaf00"/></g></svg>